<svg width="20" height="20" fill="none" xmlns="http://www.w3.org/2000/svg"><g clip-path="url('#clip0_206_33')"><path fill="#fff" d="M0 0h20v20H0z"/><path d="M0 0h100v100H0V0Z" fill="#fff"/><path d="M4.994 14.337h1.853v-4.5L4.2 7.852v5.691c0 .44.356.794.794.794Z" fill="#4285F4"/><path d="M13.2 14.337h1.853c.439 0 .794-.356.794-.794v-5.69L13.2 9.836" fill="#34A853"/><path d="M13.2 6.396v3.441l2.647-1.985V6.793a1.191 1.191 0 0 0-1.906-.953" fill="#FBBC04"/><path d="M6.847 9.837v-3.44l3.176 2.382L13.2 6.396v3.441l-3.177 2.383" fill="#EA4335"/><path d="M4.2 6.793v1.06l2.647 1.984v-3.44l-.741-.557a1.19 1.19 0 0 0-1.906.953Z" fill="#C5221F"/></g><defs><clipPath id="clip0_206_33"><path fill="#fff" d="M0 0h20v20H0z"/></clipPath></defs></svg>