<svg width="20" height="20" fill="none" xmlns="http://www.w3.org/2000/svg"><path fill="#32BF2F" d="M0 0h20v20H0z"/><path fill-rule="evenodd" clip-rule="evenodd" d="M3.737 3.575a3.75 3.75 0 0 0-.598.787 3.93 3.93 0 0 0-.43 1.223c-.647 3.288.176 6.23 2.893 8.928 1.783 1.77 3.135 2.497 4.986 2.763 1.037.149 2.092.161 3.136.22.463.027.958-.071 1.4-.2a3.57 3.57 0 0 0 1.332-5.886l-.124-.12a3.56 3.56 0 0 0-4.76-.027l-1.02 1.007a.548.548 0 0 1-.704.06c-.454-.32-1.658-1.498-1.953-1.9a.55.55 0 0 1 .055-.713c.324-.317.651-.631.972-.952a3.673 3.673 0 0 0 0-5.19 3.663 3.663 0 0 0-5.185 0Z" fill="#fff"/></svg>