<svg width="20" height="20" fill="none" xmlns="http://www.w3.org/2000/svg"><g clip-path="url('#clip0_63_80')"><path fill="#fff" d="M0 0h20v20H0z"/><path fill-rule="evenodd" clip-rule="evenodd" d="M100 0H0v100h100V0ZM4.6 5.383c0-.432.362-.783.808-.783h9.313c.446 0 .807.35.807.783v9.363a.795.795 0 0 1-.808.782H5.409a.796.796 0 0 1-.808-.782V5.383Zm3.32 8.362v-4.92H6.287v4.92H7.92Zm-.816-5.591c.57 0 .925-.378.925-.85-.011-.483-.355-.85-.915-.85s-.925.367-.925.85c0 .472.355.85.904.85h.01Zm1.722 5.591h1.635v-2.747c0-.147.01-.294.054-.399.118-.294.387-.598.84-.598.59 0 .827.451.827 1.113v2.631h1.636v-2.82c0-1.512-.807-2.215-1.883-2.215-.867 0-1.256.477-1.474.812v-.696H8.826c.021.461 0 4.92 0 4.92Z" fill="#069"/></g><defs><clipPath id="clip0_63_80"><path fill="#fff" d="M0 0h20v20H0z"/></clipPath></defs></svg>