<svg width="20" height="20" viewBox="0 0 20 20" fill="none" xmlns="http://www.w3.org/2000/svg">
<g clip-path="url(#clip0_61_222)">
<rect width="20" height="20" fill="white"/>
<path d="M0 0H100V100H0V0Z" fill="white"/>
<path d="M4.99405 14.3372H6.84694V9.83736L4.19995 7.85212V13.5431C4.19995 13.9825 4.55597 14.3372 4.99405 14.3372Z" fill="#4285F4"/>
<path d="M13.1997 14.3372H15.0526C15.492 14.3372 15.8467 13.9812 15.8467 13.5431V7.85212L13.1997 9.83736" fill="#34A853"/>
<path d="M13.1997 6.39633V9.83736L15.8467 7.85212V6.79337C15.8467 5.81134 14.7257 5.2515 13.9409 5.84046" fill="#FBBC04"/>
<path d="M6.84694 9.83736L6.84694 6.39627L10.0233 8.77856L13.1997 6.39633V9.83736L10.0233 12.2196" fill="#EA4335"/>
<path d="M4.19995 6.79337V7.85212L6.84694 9.83736L6.84694 6.39627L6.10579 5.84046C5.31963 5.2515 4.19995 5.81134 4.19995 6.79337Z" fill="#C5221F"/>
</g>
<defs>
<clipPath id="clip0_61_222">
<rect width="20" height="20" fill="white"/>
</clipPath>
</defs>
</svg>
