<svg width="20" height="20" viewBox="0 0 20 20" fill="none" xmlns="http://www.w3.org/2000/svg">
<g clip-path="url(#clip0_206_33)">
<rect width="20" height="20" fill="white"/>
<path d="M0 0H100V100H0V0Z" fill="white"/>
<path d="M4.99405 14.3373H6.84694V9.83739L4.19995 7.85215V13.5432C4.19995 13.9826 4.55597 14.3373 4.99405 14.3373Z" fill="#4285F4"/>
<path d="M13.1997 14.3373H15.0526C15.492 14.3373 15.8467 13.9813 15.8467 13.5432V7.85215L13.1997 9.83739" fill="#34A853"/>
<path d="M13.1997 6.39636V9.83739L15.8467 7.85215V6.7934C15.8467 5.81137 14.7257 5.25153 13.9409 5.84049" fill="#FBBC04"/>
<path d="M6.84694 9.83739L6.84694 6.3963L10.0233 8.77859L13.1997 6.39636V9.83739L10.0233 12.2197" fill="#EA4335"/>
<path d="M4.19995 6.7934V7.85215L6.84694 9.83739L6.84694 6.3963L6.10579 5.84049C5.31963 5.25153 4.19995 5.81137 4.19995 6.7934Z" fill="#C5221F"/>
</g>
<defs>
<clipPath id="clip0_206_33">
<rect width="20" height="20" fill="white"/>
</clipPath>
</defs>
</svg>
