<svg width="20" height="20" viewBox="0 0 20 20" fill="none" xmlns="http://www.w3.org/2000/svg">
<rect width="20" height="20" fill="#32BF2F"/>
<path fill-rule="evenodd" clip-rule="evenodd" d="M3.73714 3.57494C3.49867 3.81367 3.28001 4.10651 3.13864 4.36151C2.92082 4.74381 2.79209 5.15553 2.70982 5.58495C2.06169 8.87328 2.88481 11.8149 5.60203 14.5127C7.38486 16.2829 8.73677 17.0103 10.5878 17.2758C11.625 17.4246 12.6796 17.4373 13.7241 17.4968C14.1871 17.5232 14.682 17.4246 15.1246 17.2951C15.622 17.1193 16.0761 16.8343 16.4563 16.4536C17.8479 15.0606 17.8479 12.8019 16.4563 11.4089L16.3324 11.2905C14.9872 10.0656 12.9301 10.0544 11.5724 11.2629L10.5511 12.2698C10.3625 12.4586 10.0657 12.4842 9.84772 12.3304C9.39429 12.0106 8.18952 10.8315 7.89543 10.4296C7.73555 10.2111 7.75877 9.90859 7.95009 9.71713C8.27393 9.39991 8.60135 9.08595 8.92173 8.76522C10.3534 7.33197 10.3534 5.0082 8.92173 3.57494C7.49004 2.14169 5.16882 2.14169 3.73714 3.57494Z" fill="white"/>
</svg>
