<svg width="20" height="20" viewBox="0 0 20 20" fill="none" xmlns="http://www.w3.org/2000/svg">
<g clip-path="url(#clip0_63_80)">
<rect width="20" height="20" fill="white"/>
<path fill-rule="evenodd" clip-rule="evenodd" d="M100 0H0V100H100V0ZM4.6 5.38281C4.6 4.95072 4.96174 4.6 5.40766 4.6H14.7205C15.1666 4.6 15.5281 4.95072 15.5281 5.38281V14.7455C15.5281 15.1777 15.1666 15.5281 14.7205 15.5281H5.40766C4.96178 15.5281 4.6 15.1777 4.6 14.7456V5.38281ZM7.92087 13.7454V8.82556H6.28557V13.7454H7.92087ZM7.10356 8.15394C7.6737 8.15394 8.02865 7.77616 8.02865 7.30403C8.01798 6.82114 7.6737 6.45389 7.1144 6.45389C6.55472 6.45389 6.18918 6.82114 6.18918 7.30398C6.18918 7.77611 6.54401 8.1539 7.09285 8.1539L7.10356 8.15394ZM8.82602 13.7454H10.4612V10.9982C10.4612 10.8514 10.4719 10.7042 10.5151 10.5993C10.6332 10.3054 10.9023 10.0011 11.3541 10.0011C11.9457 10.0011 12.1825 10.4523 12.1825 11.1137V13.7454H13.8176V10.9245C13.8176 9.41341 13.011 8.71021 11.9351 8.71021C11.0677 8.71021 10.6787 9.18695 10.4613 9.52212V8.82573H8.82611C8.84745 9.28727 8.82602 13.7454 8.82602 13.7454Z" fill="#006699"/>
</g>
<defs>
<clipPath id="clip0_63_80">
<rect width="20" height="20" fill="white"/>
</clipPath>
</defs>
</svg>
